<svg xmlns="http://www.w3.org/2000/svg" width="225" height="225" viewBox="0 0 225 225" version="1.1"><path d="M 74.492 59.865 C 69.693 62.045, 15.932 92.901, 14.500 94.297 C 13.846 94.935, 14.269 95.087, 15.724 94.736 C 19.939 93.721, 25.734 95.965, 39.573 103.971 C 47.207 108.387, 53.773 112, 54.164 112 C 55.498 112, 91.492 90.862, 93.879 88.677 C 100.375 82.732, 100.767 70.755, 94.683 64.118 C 91.876 61.055, 85.340 58.044, 81.500 58.044 C 79.850 58.044, 76.696 58.863, 74.492 59.865" stroke="none" fill="#ea4335" fill-rule="evenodd"/><path d="M 130.872 63.750 C 129.629 65.336, 129.664 65.371, 131.250 64.128 C 132.916 62.821, 133.445 62, 132.622 62 C 132.415 62, 131.627 62.788, 130.872 63.750 M 14.123 95.013 C 0.984 98.073, -4.017 114.790, 5.310 124.472 C 9.738 129.068, 73.893 165.799, 78.888 166.598 C 85.841 167.710, 94.204 163.374, 97.536 156.931 C 99.397 153.332, 99.426 144.716, 97.589 141.200 C 95.247 136.717, 91.154 133.615, 76.500 125.216 C 68.800 120.803, 54.213 112.414, 44.085 106.574 C 33.957 100.734, 24.507 95.699, 23.085 95.385 C 21.663 95.071, 19.825 94.682, 19 94.520 C 18.175 94.359, 15.980 94.580, 14.123 95.013" stroke="none" fill="#4285f4" fill-rule="evenodd"/><path d="M 138.007 59.539 C 127.733 64.153, 123.695 75.347, 128.938 84.676 C 131.611 89.432, 130.672 88.813, 169 111.052 C 197.967 127.860, 200.959 129.366, 206.212 129.782 C 211.052 130.166, 212.602 129.838, 216.366 127.632 C 225.060 122.537, 227.541 110.844, 221.746 102.275 C 219.637 99.157, 213.207 95.065, 184.784 78.757 C 147.748 57.505, 145.025 56.387, 138.007 59.539" stroke="none" fill="#0d9c58" fill-rule="evenodd"/><path d="M 153 123.088 C 142.825 128.951, 133.057 135.149, 131.292 136.860 C 123.495 144.425, 125.230 157.919, 134.808 164.202 C 138.384 166.548, 145.224 167.466, 149.088 166.119 C 150.821 165.515, 165.697 157.253, 182.144 147.760 C 212.049 130.500, 212.049 130.500, 206.274 129.898 C 201.398 129.389, 198.245 127.984, 186 120.861 L 171.500 112.427 153 123.088" stroke="none" fill="#fbbc08" fill-rule="evenodd"/><path d="M 0.044 55.250 C 0.082 103.798, 0.257 110.024, 1.485 106.578 C 2.254 104.421, 4.147 101.420, 5.691 99.910 C 9.749 95.944, 74.471 58.960, 78.498 58.307 C 86.133 57.068, 93.962 61.158, 97.666 68.322 C 100.885 74.545, 99.095 84.039, 93.767 89.002 C 92.551 90.135, 83.298 95.830, 73.204 101.657 C 63.111 107.485, 55.223 112.599, 55.676 113.023 C 56.129 113.446, 64.150 118.173, 73.500 123.526 C 91.091 133.598, 95.188 136.604, 97.589 141.200 C 99.426 144.716, 99.397 153.332, 97.536 156.931 C 94.204 163.374, 85.841 167.710, 78.888 166.598 C 74.474 165.892, 10.295 129.452, 5.691 125.037 C 4.147 123.556, 2.254 120.579, 1.485 118.422 C 0.257 114.976, 0.082 121.202, 0.044 169.754 L -0 225.009 112.750 224.754 L 225.500 224.500 225.711 169 C 225.896 120.232, 225.750 113.978, 224.512 117.442 C 223.738 119.610, 222.293 122.469, 221.302 123.794 C 219.238 126.555, 152.109 165.598, 147.799 166.544 C 131.084 170.215, 119.216 148.650, 131.399 136.743 C 133.224 134.959, 142.880 128.847, 152.858 123.160 C 162.836 117.474, 171 112.677, 171 112.500 C 171 112.323, 162.836 107.526, 152.858 101.840 C 142.880 96.153, 133.224 90.041, 131.399 88.257 C 122.942 79.991, 125.468 65.341, 136.250 60.121 C 141.350 57.652, 145.709 57.434, 150.439 59.410 C 154.769 61.219, 214.493 95.544, 218.614 98.591 C 220.327 99.858, 222.667 102.831, 223.814 105.197 C 225.900 109.500, 225.900 109.500, 225.950 54.750 L 226 0 113 0 L 0 0 0.044 55.250 M 0.467 55.500 C 0.467 85.750, 0.594 98.269, 0.749 83.321 C 0.905 68.372, 0.905 43.622, 0.749 28.321 C 0.594 13.019, 0.467 25.250, 0.467 55.500 M 0.467 170 C 0.467 200.525, 0.594 213.012, 0.749 197.750 C 0.905 182.487, 0.905 157.512, 0.749 142.250 C 0.594 126.987, 0.467 139.475, 0.467 170" stroke="none" fill="#fbfbfb" fill-rule="evenodd"/></svg>